# MagicaVoxel @ Ephtracy

# group
o 

# material
mtllib tTile_002.mtl
usemtl palette

# normals
vn -1 0 0
vn 1 0 0
vn 0 0 1
vn 0 0 -1
vn 0 -1 0
vn 0 1 0

# texcoords
vt 0.306641 0.5
vt 0.373047 0.5
vt 0.541016 0.5
vt 0.841797 0.5
vt 0.880859 0.5

# verts
v -0.5 0 0.5
v -0.5 0 -0.5
v -0.5 0.4 0.5
v -0.5 0.4 -0.5
v -0.5 0.5 0.5
v -0.5 0.5 -0.5
v -0.5 0.7 0.5
v -0.5 0.7 -0.5
v -0.5 0.8 -0.4
v -0.5 0.8 -0.5
v -0.5 0.9 0.1
v -0.5 0.9 0
v -0.5 1 0.5
v -0.5 1 0.1
v -0.5 1 0
v -0.5 1 -0.4
v -0.4 0.9 0.1
v -0.4 0.9 0
v -0.4 1 0.1
v -0.4 1 0
v 0 0.9 0.5
v 0 0.9 0.4
v 0 1 0.5
v 0 1 0.4
v 0.2 0.9 0.5
v 0.2 0.9 0.4
v 0.2 1 0.5
v 0.2 1 0.4
v -0.1 0.9 0.5
v -0.1 0.9 0.4
v -0.1 1 0.5
v -0.1 1 0.4
v 0.1 0.9 0.5
v 0.1 0.9 0.4
v 0.1 1 0.5
v 0.1 1 0.4
v 0.4 0 0.5
v 0.4 0 -0.2
v 0.4 0.1 0.4
v 0.4 0.1 -0.2
v 0.4 0.1 -0.3
v 0.4 0.1 -0.4
v 0.4 0.1 -0.5
v 0.4 0.3 -0.2
v 0.4 0.3 -0.3
v 0.4 0.4 0.5
v 0.4 0.4 0.4
v 0.4 0.4 -0.2
v 0.4 0.4 -0.3
v 0.4 0.4 -0.4
v 0.4 0.4 -0.5
v 0.4 0.5 0.5
v 0.4 0.5 0.4
v 0.4 0.5 -0.2
v 0.4 0.8 0.2
v 0.4 0.8 -0.1
v 0.4 1 0.2
v 0.4 1 -0.1
v 0.5 0 -0.2
v 0.5 0 -0.5
v 0.5 0.1 -0.2
v 0.5 0.1 -0.3
v 0.5 0.1 -0.5
v 0.5 0.3 -0.2
v 0.5 0.3 -0.3
v 0.5 0.4 -0.2
v 0.5 0.4 -0.3
v 0.5 0.4 -0.4
v 0.5 0.4 -0.5
v 0.5 0.5 0.5
v 0.5 0.5 -0.2
v 0.5 0.5 -0.3
v 0.5 0.5 -0.4
v 0.5 0.5 -0.5
v 0.5 0.6 0.5
v 0.5 0.6 0.4
v 0.5 0.6 -0.2
v 0.5 0.6 -0.3
v 0.5 0.7 0.5
v 0.5 0.7 0.4
v 0.5 0.7 -0.4
v 0.5 0.7 -0.5
v 0.5 0.8 0.2
v 0.5 0.8 -0.1
v 0.5 0.8 -0.4
v 0.5 0.8 -0.5
v 0.5 1 0.5
v 0.5 1 0.2
v 0.5 1 -0.1
v 0.5 1 -0.4
v -0.5 0 0.5
v -0.5 0.4 0.5
v -0.5 0.5 0.5
v -0.5 0.7 0.5
v -0.5 1 0.5
v -0.1 0.9 0.5
v -0.1 1 0.5
v 0 0.9 0.5
v 0 1 0.5
v 0.1 0.9 0.5
v 0.1 1 0.5
v 0.2 0.9 0.5
v 0.2 1 0.5
v 0.4 0 0.5
v 0.4 0.4 0.5
v 0.4 0.5 0.5
v 0.4 0.6 0.5
v 0.5 0.5 0.5
v 0.5 0.6 0.5
v 0.5 0.7 0.5
v 0.5 1 0.5
v -0.1 0.9 0.4
v -0.1 1 0.4
v 0 0.9 0.4
v 0 1 0.4
v 0.1 0.9 0.4
v 0.1 1 0.4
v 0.2 0.9 0.4
v 0.2 1 0.4
v -0.5 0.9 0
v -0.5 1 0
v -0.4 0.9 0
v -0.4 1 0
v 0.4 0.8 -0.1
v 0.4 1 -0.1
v 0.5 0.8 -0.1
v 0.5 1 -0.1
v 0.4 0 -0.2
v 0.4 0.1 -0.2
v 0.4 0.3 -0.2
v 0.4 0.4 -0.2
v 0.4 0.5 -0.2
v 0.5 0 -0.2
v 0.5 0.1 -0.2
v 0.5 0.3 -0.2
v 0.5 0.4 -0.2
v 0.5 0.5 -0.2
v 0.4 0.8 0.2
v 0.4 1 0.2
v 0.5 0.8 0.2
v 0.5 1 0.2
v -0.5 0.9 0.1
v -0.5 1 0.1
v -0.4 0.9 0.1
v -0.4 1 0.1
v 0.4 0.1 -0.3
v 0.4 0.3 -0.3
v 0.4 0.4 -0.3
v 0.5 0.1 -0.3
v 0.5 0.3 -0.3
v 0.5 0.4 -0.3
v -0.5 0.8 -0.4
v -0.5 1 -0.4
v 0.5 0.8 -0.4
v 0.5 1 -0.4
v -0.5 0 -0.5
v -0.5 0.4 -0.5
v -0.5 0.5 -0.5
v -0.5 0.7 -0.5
v -0.5 0.8 -0.5
v 0.4 0.1 -0.5
v 0.4 0.4 -0.5
v 0.5 0 -0.5
v 0.5 0.1 -0.5
v 0.5 0.4 -0.5
v 0.5 0.5 -0.5
v 0.5 0.7 -0.5
v 0.5 0.8 -0.5
v -0.5 0 0.5
v 0.4 0 0.5
v 0.4 0 -0.2
v 0.5 0 -0.2
v -0.5 0 -0.5
v 0.5 0 -0.5
v 0.4 0.4 -0.3
v 0.5 0.4 -0.3
v 0.4 0.4 -0.4
v 0.5 0.4 -0.4
v 0.4 0.4 -0.5
v 0.5 0.4 -0.5
v 0.4 0.5 0.5
v 0.5 0.5 0.5
v 0.4 0.5 0.4
v 0.4 0.5 -0.2
v 0.5 0.5 -0.2
v 0.4 0.1 -0.3
v 0.5 0.1 -0.3
v 0.4 0.1 -0.4
v 0.4 0.1 -0.5
v 0.5 0.1 -0.5
v 0.4 0.8 0.2
v 0.5 0.8 0.2
v 0.4 0.8 -0.1
v 0.5 0.8 -0.1
v -0.5 0.8 -0.4
v 0.5 0.8 -0.4
v -0.5 0.8 -0.5
v 0.5 0.8 -0.5
v -0.1 0.9 0.5
v 0 0.9 0.5
v 0.1 0.9 0.5
v 0.2 0.9 0.5
v -0.1 0.9 0.4
v 0 0.9 0.4
v 0.1 0.9 0.4
v 0.2 0.9 0.4
v -0.5 0.9 0.1
v -0.4 0.9 0.1
v -0.5 0.9 0
v -0.4 0.9 0
v -0.5 1 0.5
v -0.1 1 0.5
v 0 1 0.5
v 0.1 1 0.5
v 0.2 1 0.5
v 0.5 1 0.5
v -0.1 1 0.4
v 0 1 0.4
v 0.1 1 0.4
v 0.2 1 0.4
v 0.4 1 0.2
v 0.5 1 0.2
v -0.5 1 0.1
v -0.4 1 0.1
v -0.5 1 0
v -0.4 1 0
v 0.4 1 -0.1
v 0.5 1 -0.1
v -0.5 1 -0.4
v 0.5 1 -0.4

# faces
f 3/2/1 2/2/1 1/2/1
f 4/2/1 2/2/1 3/2/1
f 5/3/1 4/3/1 3/3/1
f 6/3/1 4/3/1 5/3/1
f 7/2/1 6/2/1 5/2/1
f 8/2/1 6/2/1 7/2/1
f 9/5/1 8/5/1 7/5/1
f 10/5/1 8/5/1 9/5/1
f 11/5/1 9/5/1 7/5/1
f 12/5/1 9/5/1 11/5/1
f 13/5/1 11/5/1 7/5/1
f 14/5/1 11/5/1 13/5/1
f 15/5/1 9/5/1 12/5/1
f 16/5/1 9/5/1 15/5/1
f 19/5/1 18/5/1 17/5/1
f 20/5/1 18/5/1 19/5/1
f 23/5/1 22/5/1 21/5/1
f 24/5/1 22/5/1 23/5/1
f 27/5/1 26/5/1 25/5/1
f 28/5/1 26/5/1 27/5/1
f 29/5/2 30/5/2 31/5/2
f 31/5/2 30/5/2 32/5/2
f 33/5/2 34/5/2 35/5/2
f 35/5/2 34/5/2 36/5/2
f 37/2/2 38/2/2 39/2/2
f 39/2/2 38/2/2 40/2/2
f 39/1/2 40/1/2 44/1/2
f 41/1/2 42/1/2 45/1/2
f 37/2/2 39/2/2 46/2/2
f 39/1/2 44/1/2 47/1/2
f 46/2/2 39/2/2 47/2/2
f 47/1/2 44/1/2 48/1/2
f 45/1/2 42/1/2 49/1/2
f 42/2/2 43/2/2 50/2/2
f 49/1/2 42/1/2 50/1/2
f 50/2/2 43/2/2 51/2/2
f 46/3/2 47/3/2 52/3/2
f 47/1/2 48/1/2 53/1/2
f 52/3/2 47/3/2 53/3/2
f 53/1/2 48/1/2 54/1/2
f 55/5/2 56/5/2 57/5/2
f 57/5/2 56/5/2 58/5/2
f 59/2/2 60/2/2 61/2/2
f 61/2/2 60/2/2 62/2/2
f 62/2/2 60/2/2 63/2/2
f 61/1/2 62/1/2 64/1/2
f 64/1/2 62/1/2 65/1/2
f 64/3/2 65/3/2 66/3/2
f 66/3/2 65/3/2 67/3/2
f 66/1/2 67/1/2 71/1/2
f 67/1/2 68/1/2 71/1/2
f 71/1/2 68/1/2 72/1/2
f 68/3/2 69/3/2 73/3/2
f 72/1/2 68/1/2 73/1/2
f 73/3/2 69/3/2 74/3/2
f 70/3/2 71/3/2 75/3/2
f 75/3/2 71/3/2 76/3/2
f 71/4/2 72/4/2 77/4/2
f 76/3/2 71/3/2 77/3/2
f 72/1/2 73/1/2 78/1/2
f 77/4/2 72/4/2 78/4/2
f 75/2/2 76/2/2 79/2/2
f 76/1/2 77/1/2 80/1/2
f 79/2/2 76/2/2 80/2/2
f 77/1/2 78/1/2 80/1/2
f 78/1/2 73/1/2 81/1/2
f 80/1/2 78/1/2 81/1/2
f 73/2/2 74/2/2 81/2/2
f 81/2/2 74/2/2 82/2/2
f 79/5/2 80/5/2 83/5/2
f 80/5/2 81/5/2 83/5/2
f 81/5/2 82/5/2 83/5/2
f 83/5/2 82/5/2 84/5/2
f 84/5/2 82/5/2 85/5/2
f 85/5/2 82/5/2 86/5/2
f 79/5/2 83/5/2 87/5/2
f 87/5/2 83/5/2 88/5/2
f 84/5/2 85/5/2 89/5/2
f 89/5/2 85/5/2 90/5/2
f 96/5/3 95/5/3 94/5/3
f 97/5/3 95/5/3 96/5/3
f 98/5/3 96/5/3 94/5/3
f 100/5/3 98/5/3 94/5/3
f 100/5/3 99/5/3 98/5/3
f 101/5/3 99/5/3 100/5/3
f 102/5/3 100/5/3 94/5/3
f 104/2/3 92/2/3 91/2/3
f 105/3/3 93/3/3 92/3/3
f 105/2/3 92/2/3 104/2/3
f 106/2/3 94/2/3 93/2/3
f 106/3/3 93/3/3 105/3/3
f 107/2/3 94/2/3 106/2/3
f 108/3/3 107/3/3 106/3/3
f 109/2/3 94/2/3 107/2/3
f 109/3/3 107/3/3 108/3/3
f 110/5/3 103/5/3 102/5/3
f 110/2/3 94/2/3 109/2/3
f 110/5/3 102/5/3 94/5/3
f 111/5/3 103/5/3 110/5/3
f 114/5/3 113/5/3 112/5/3
f 115/5/3 113/5/3 114/5/3
f 118/5/3 117/5/3 116/5/3
f 119/5/3 117/5/3 118/5/3
f 122/5/3 121/5/3 120/5/3
f 123/5/3 121/5/3 122/5/3
f 126/5/3 125/5/3 124/5/3
f 127/5/3 125/5/3 126/5/3
f 133/2/3 129/2/3 128/2/3
f 134/1/3 130/1/3 129/1/3
f 134/2/3 129/2/3 133/2/3
f 135/3/3 131/3/3 130/3/3
f 135/1/3 130/1/3 134/1/3
f 136/1/3 132/1/3 131/1/3
f 136/3/3 131/3/3 135/3/3
f 137/1/3 132/1/3 136/1/3
f 138/5/4 139/5/4 140/5/4
f 140/5/4 139/5/4 141/5/4
f 142/5/4 143/5/4 144/5/4
f 144/5/4 143/5/4 145/5/4
f 146/1/4 147/1/4 149/1/4
f 147/3/4 148/3/4 150/3/4
f 149/1/4 147/1/4 150/1/4
f 150/3/4 148/3/4 151/3/4
f 152/5/4 153/5/4 154/5/4
f 154/5/4 153/5/4 155/5/4
f 156/2/4 157/2/4 161/2/4
f 157/3/4 158/3/4 162/3/4
f 161/2/4 157/2/4 162/2/4
f 156/2/4 161/2/4 163/2/4
f 163/2/4 161/2/4 164/2/4
f 162/3/4 158/3/4 165/3/4
f 158/2/4 159/2/4 166/2/4
f 165/3/4 158/3/4 166/3/4
f 159/5/4 160/5/4 167/5/4
f 166/2/4 159/2/4 167/2/4
f 167/5/4 160/5/4 168/5/4
f 171/2/5 170/2/5 169/2/5
f 173/2/5 171/2/5 169/2/5
f 173/2/5 172/2/5 171/2/5
f 174/2/5 172/2/5 173/2/5
f 177/1/5 176/1/5 175/1/5
f 178/1/5 176/1/5 177/1/5
f 179/3/5 178/3/5 177/3/5
f 180/3/5 178/3/5 179/3/5
f 183/3/5 182/3/5 181/3/5
f 184/3/5 182/3/5 183/3/5
f 185/3/5 182/3/5 184/3/5
f 186/2/6 187/2/6 188/2/6
f 188/2/6 187/2/6 189/2/6
f 189/2/6 187/2/6 190/2/6
f 191/5/6 192/5/6 193/5/6
f 193/5/6 192/5/6 194/5/6
f 195/5/6 196/5/6 197/5/6
f 197/5/6 196/5/6 198/5/6
f 199/5/6 200/5/6 203/5/6
f 203/5/6 200/5/6 204/5/6
f 201/5/6 202/5/6 205/5/6
f 205/5/6 202/5/6 206/5/6
f 207/5/6 208/5/6 209/5/6
f 209/5/6 208/5/6 210/5/6
f 211/5/6 212/5/6 217/5/6
f 213/5/6 214/5/6 218/5/6
f 218/5/6 214/5/6 219/5/6
f 215/5/6 216/5/6 220/5/6
f 218/5/6 219/5/6 221/5/6
f 219/5/6 220/5/6 221/5/6
f 220/5/6 216/5/6 221/5/6
f 217/5/6 218/5/6 221/5/6
f 221/5/6 216/5/6 222/5/6
f 211/5/6 217/5/6 223/5/6
f 217/5/6 221/5/6 223/5/6
f 223/5/6 221/5/6 224/5/6
f 224/5/6 221/5/6 226/5/6
f 226/5/6 221/5/6 227/5/6
f 225/5/6 226/5/6 227/5/6
f 225/5/6 227/5/6 229/5/6
f 227/5/6 228/5/6 229/5/6
f 229/5/6 228/5/6 230/5/6
